<?xml version="1.0" standalone="no"?>
<!DOCTYPE svg PUBLIC "-//W3C//DTD SVG 20010904//EN"
 "http://www.w3.org/TR/2001/REC-SVG-20010904/DTD/svg10.dtd">
<svg version="1.0" xmlns="http://www.w3.org/2000/svg"
 width="519.000000pt" height="519.000000pt" viewBox="0 0 519.000000 519.000000"
 preserveAspectRatio="xMidYMid meet">
<metadata>
Created by potrace 1.14, written by Peter Selinger 2001-2017
</metadata>
<g transform="translate(0.000000,519.000000) scale(0.100000,-0.100000)"
fill="#000000" stroke="none">
<path d="M868 3386 c-10 -7 -21 -24 -26 -37 -14 -36 -26 -347 -23 -589 1 -130
-4 -312 -15 -461 -9 -135 -14 -258 -10 -273 17 -67 100 -90 146 -41 20 21 24
39 31 147 12 190 29 352 37 359 20 18 603 118 690 119 l32 0 0 -117 c0 -65 5
-192 11 -283 10 -153 13 -167 35 -189 34 -36 89 -34 120 3 28 32 30 66 13 311
-9 132 -8 195 5 357 9 109 16 272 16 363 0 92 5 186 11 210 14 56 6 90 -26
111 -60 39 -112 7 -140 -84 -13 -44 -18 -108 -22 -279 l-5 -222 -67 -6 c-145
-13 -245 -28 -443 -66 -113 -21 -217 -39 -229 -39 l-22 0 8 278 c13 414 14
386 -14 416 -27 29 -83 35 -113 12z"/>
<path d="M2879 3366 c-4 -4 -112 -8 -242 -9 -234 -2 -236 -2 -261 -26 -20 -19
-26 -34 -26 -65 1 -82 33 -96 216 -96 l134 0 0 -218 c0 -468 -43 -815 -104
-838 -26 -10 -121 24 -184 66 -71 48 -99 88 -109 156 -8 63 -38 94 -90 94 -63
-1 -93 -38 -93 -114 0 -80 36 -153 109 -226 105 -104 231 -161 358 -162 80 0
130 29 172 103 75 133 121 481 121 928 l0 224 123 -7 123 -7 27 27 c27 27 35
71 21 109 -13 34 -83 57 -188 62 -56 3 -104 2 -107 -1z"/>
<path d="M3360 3354 c-37 -16 -50 -37 -50 -86 0 -54 24 -88 63 -89 94 -2 515
2 612 7 l120 6 -96 -98 c-159 -163 -188 -199 -474 -599 -115 -159 -216 -308
-226 -330 -10 -22 -19 -61 -19 -87 0 -39 4 -50 27 -68 27 -21 28 -21 551 -17
l524 5 24 23 c35 33 30 93 -8 122 -38 29 -182 33 -571 17 -170 -6 -310 -10
-311 -8 -6 5 374 550 439 629 96 119 223 240 329 314 141 99 178 155 137 207
-35 45 -87 50 -438 46 -175 -2 -385 0 -468 4 -82 5 -157 5 -165 2z"/>
</g>
</svg>
